<svg xmlns="http://www.w3.org/2000/svg" xmlns:xlink="http://www.w3.org/1999/xlink" contentStyleType="text/css" height="805px" preserveAspectRatio="none" style="width:629px;height:805px;background:#FFFFFF;" version="1.1" viewBox="0 0 629 805" width="629px" zoomAndPan="magnify"><title>File Processing Workflow with Conditional Logic</title><defs/><g><text fill="#000000" font-family="Arial" font-size="22" font-weight="bold" lengthAdjust="spacing" textLength="596.8682" x="15" y="35.4209">File Processing Workflow with Conditional Logic</text><text fill="#000000" font-family="Arial" font-size="22" font-weight="bold" lengthAdjust="spacing" textLength="426.8516" x="100.0083" y="61.0303">Elektrum Partner Data Integration</text><ellipse cx="230.7882" cy="87.2188" fill="#FFFFFF" rx="10" ry="10" style="stroke:#000000;stroke-width:1;"/><rect fill="#FFFFFF" height="32.8047" rx="12.5" ry="12.5" style="stroke:#000000;stroke-width:1;" width="114.8052" x="173.3856" y="117.2188"/><text fill="#000000" font-family="Arial" font-size="11" lengthAdjust="spacing" textLength="94.8052" x="183.3856" y="137.4292">Read Partner File</text><polygon fill="#FFFFFF" points="200.3717,170.0234,261.2047,170.0234,273.2047,182.0234,261.2047,194.0234,200.3717,194.0234,188.3717,182.0234,200.3717,170.0234" style="stroke:#000000;stroke-width:1;"/><text fill="#000000" font-family="Arial" font-size="11" lengthAdjust="spacing" textLength="60.833" x="200.3717" y="185.8315">File Exists?</text><text fill="#000000" font-family="Arial" font-size="11" lengthAdjust="spacing" textLength="13.7017" x="174.67" y="179.4292">no</text><text fill="#000000" font-family="Arial" font-size="11" lengthAdjust="spacing" textLength="19.0083" x="273.2047" y="179.4292">yes</text><rect fill="#FFFFFF" height="32.8047" rx="12.5" ry="12.5" style="stroke:#000000;stroke-width:1;" width="86.4834" x="58.9022" y="204.0234"/><text fill="#000000" font-family="Arial" font-size="11" lengthAdjust="spacing" textLength="66.4834" x="68.9022" y="224.2339">ERROR EXIT</text><ellipse cx="102.1439" cy="267.8281" fill="none" rx="11" ry="11" style="stroke:#000000;stroke-width:1;"/><ellipse cx="102.1439" cy="267.8281" fill="#FFFFFF" rx="6" ry="6" style="stroke:#000000;stroke-width:1;"/><rect fill="#FFFFFF" height="32.8047" rx="12.5" ry="12.5" style="stroke:#000000;stroke-width:1;" width="116.1104" x="336.2212" y="204.0234"/><text fill="#000000" font-family="Arial" font-size="11" lengthAdjust="spacing" textLength="96.1104" x="346.2212" y="224.2339">Initialize Row = 1</text><rect fill="#FFFFFF" height="45.6094" rx="12.5" ry="12.5" style="stroke:#000000;stroke-width:1;" width="103.1929" x="342.68" y="312.5386"/><text fill="#000000" font-family="Arial" font-size="11" lengthAdjust="spacing" textLength="83.1929" x="352.68" y="332.749">Read Columns:</text><text fill="#000000" font-family="Arial" font-size="11" lengthAdjust="spacing" textLength="48.9736" x="352.68" y="345.5537">1, 2, 3, 4</text><polygon fill="#FFFFFF" points="345.5633,378.1479,442.9895,378.1479,454.9895,390.1479,442.9895,402.1479,345.5633,402.1479,333.5633,390.1479,345.5633,378.1479" style="stroke:#000000;stroke-width:1;"/><text fill="#000000" font-family="Arial" font-size="11" lengthAdjust="spacing" textLength="97.4263" x="345.5633" y="393.9561">Column 3 Empty?</text><text fill="#000000" font-family="Arial" font-size="11" lengthAdjust="spacing" textLength="13.7017" x="319.8616" y="387.5537">no</text><text fill="#000000" font-family="Arial" font-size="11" lengthAdjust="spacing" textLength="19.0083" x="454.9895" y="387.5537">yes</text><polygon fill="#FFFFFF" points="244.8752,412.1479,344.9655,412.1479,356.9655,424.1479,344.9655,436.1479,244.8752,436.1479,232.8752,424.1479,244.8752,412.1479" style="stroke:#000000;stroke-width:1;"/><text fill="#000000" font-family="Arial" font-size="11" lengthAdjust="spacing" textLength="100.0903" x="244.8752" y="427.9561">Column 1 Length?</text><text fill="#000000" font-family="Arial" font-size="15" font-weight="bold" lengthAdjust="spacing" textLength="20.874" x="212.0011" y="420.6104">10</text><text fill="#000000" font-family="Arial" font-size="15" font-weight="bold" lengthAdjust="spacing" textLength="20.874" x="356.9655" y="420.6104">11</text><rect fill="#FFFFFF" height="45.6094" rx="12.5" ry="12.5" style="stroke:#000000;stroke-width:1;" width="96.667" x="174.5417" y="446.1479"/><text fill="#000000" font-family="Arial" font-size="11" lengthAdjust="spacing" textLength="76.667" x="184.5417" y="466.3584">Use Column 1</text><text fill="#000000" font-family="Arial" font-size="11" lengthAdjust="spacing" textLength="31.061" x="184.5417" y="479.1631">Value</text><rect fill="#FFFFFF" height="45.6094" rx="12.5" ry="12.5" style="stroke:#000000;stroke-width:1;" width="96.667" x="318.632" y="446.1479"/><text fill="#000000" font-family="Arial" font-size="11" lengthAdjust="spacing" textLength="76.667" x="328.632" y="466.3584">Use Column 4</text><text fill="#000000" font-family="Arial" font-size="11" lengthAdjust="spacing" textLength="31.061" x="328.632" y="479.1631">Value</text><polygon fill="#FFFFFF" points="294.9203,497.7573,306.9203,509.7573,294.9203,521.7573,282.9203,509.7573,294.9203,497.7573" style="stroke:#000000;stroke-width:1;"/><rect fill="#FFFFFF" height="45.6094" rx="12.5" ry="12.5" style="stroke:#000000;stroke-width:1;" width="96.667" x="445.299" y="412.1479"/><text fill="#000000" font-family="Arial" font-size="11" lengthAdjust="spacing" textLength="76.667" x="455.299" y="432.3584">Use Column 2</text><text fill="#000000" font-family="Arial" font-size="11" lengthAdjust="spacing" textLength="31.061" x="455.299" y="445.1631">Value</text><polygon fill="#FFFFFF" points="394.2764,527.7573,406.2764,539.7573,394.2764,551.7573,382.2764,539.7573,394.2764,527.7573" style="stroke:#000000;stroke-width:1;"/><rect fill="#FFFFFF" height="45.6094" rx="12.5" ry="12.5" style="stroke:#000000;stroke-width:1;" width="135.2637" x="326.6446" y="571.7573"/><text fill="#000000" font-family="Arial" font-size="11" lengthAdjust="spacing" textLength="115.2637" x="336.6446" y="591.9678">Enter Selected Value</text><text fill="#000000" font-family="Arial" font-size="11" lengthAdjust="spacing" textLength="46.5352" x="336.6446" y="604.7725">to Portal</text><rect fill="#FFFFFF" height="45.6094" rx="12.5" ry="12.5" style="stroke:#000000;stroke-width:1;" width="103.1875" x="342.6826" y="637.3667"/><text fill="#000000" font-family="Arial" font-size="11" lengthAdjust="spacing" textLength="83.1875" x="352.6826" y="657.5771">Increment Row</text><text fill="#000000" font-family="Arial" font-size="11" lengthAdjust="spacing" textLength="43.957" x="352.6826" y="670.3818">Counter</text><polygon fill="#FFFFFF" points="343.1892,256.8281,445.3636,256.8281,457.3636,268.8281,445.3636,280.8281,343.1892,280.8281,331.1892,268.8281,343.1892,256.8281" style="stroke:#000000;stroke-width:1;"/><text fill="#000000" font-family="Arial" font-size="11" lengthAdjust="spacing" textLength="19.0083" x="398.2764" y="291.0386">yes</text><text fill="#000000" font-family="Arial" font-size="11" lengthAdjust="spacing" textLength="102.1743" x="343.1892" y="272.6362">More Rows in File?</text><text fill="#000000" font-family="Arial" font-size="11" lengthAdjust="spacing" textLength="13.7017" x="317.4876" y="266.2339">no</text><rect fill="#FFFFFF" height="32.8047" rx="12.5" ry="12.5" style="stroke:#000000;stroke-width:1;" width="72.6689" x="357.9419" y="724.9761"/><text fill="#000000" font-family="Arial" font-size="11" lengthAdjust="spacing" textLength="52.6689" x="367.9419" y="745.1865">Close File</text><ellipse cx="394.2764" cy="788.7808" fill="none" rx="11" ry="11" style="stroke:#000000;stroke-width:1;"/><ellipse cx="394.2764" cy="788.7808" fill="#FFFFFF" rx="6" ry="6" style="stroke:#000000;stroke-width:1;"/><line style="stroke:#000000;stroke-width:1;" x1="230.7882" x2="230.7882" y1="97.2188" y2="117.2188"/><polygon fill="#000000" points="226.7882,107.2188,230.7882,117.2188,234.7882,107.2188,230.7882,111.2188" style="stroke:#000000;stroke-width:1;"/><line style="stroke:#000000;stroke-width:1;" x1="102.1439" x2="102.1439" y1="236.8281" y2="256.8281"/><polygon fill="#000000" points="98.1439,246.8281,102.1439,256.8281,106.1439,246.8281,102.1439,250.8281" style="stroke:#000000;stroke-width:1;"/><line style="stroke:#000000;stroke-width:1;" x1="232.8752" x2="222.8752" y1="424.1479" y2="424.1479"/><line style="stroke:#000000;stroke-width:1;" x1="222.8752" x2="222.8752" y1="424.1479" y2="446.1479"/><polygon fill="#000000" points="218.8752,436.1479,222.8752,446.1479,226.8752,436.1479,222.8752,440.1479" style="stroke:#000000;stroke-width:1;"/><line style="stroke:#000000;stroke-width:1;" x1="356.9655" x2="366.9655" y1="424.1479" y2="424.1479"/><line style="stroke:#000000;stroke-width:1;" x1="366.9655" x2="366.9655" y1="424.1479" y2="446.1479"/><polygon fill="#000000" points="362.9655,436.1479,366.9655,446.1479,370.9655,436.1479,366.9655,440.1479" style="stroke:#000000;stroke-width:1;"/><line style="stroke:#000000;stroke-width:1;" x1="222.8752" x2="222.8752" y1="491.7573" y2="509.7573"/><line style="stroke:#000000;stroke-width:1;" x1="222.8752" x2="282.9203" y1="509.7573" y2="509.7573"/><polygon fill="#000000" points="272.9203,505.7573,282.9203,509.7573,272.9203,513.7573,276.9203,509.7573" style="stroke:#000000;stroke-width:1;"/><line style="stroke:#000000;stroke-width:1;" x1="366.9655" x2="366.9655" y1="491.7573" y2="509.7573"/><line style="stroke:#000000;stroke-width:1;" x1="366.9655" x2="306.9203" y1="509.7573" y2="509.7573"/><polygon fill="#000000" points="316.9203,505.7573,306.9203,509.7573,316.9203,513.7573,312.9203,509.7573" style="stroke:#000000;stroke-width:1;"/><line style="stroke:#000000;stroke-width:1;" x1="333.5633" x2="294.9203" y1="390.1479" y2="390.1479"/><line style="stroke:#000000;stroke-width:1;" x1="294.9203" x2="294.9203" y1="390.1479" y2="412.1479"/><polygon fill="#000000" points="290.9203,402.1479,294.9203,412.1479,298.9203,402.1479,294.9203,406.1479" style="stroke:#000000;stroke-width:1;"/><line style="stroke:#000000;stroke-width:1;" x1="454.9895" x2="493.6325" y1="390.1479" y2="390.1479"/><line style="stroke:#000000;stroke-width:1;" x1="493.6325" x2="493.6325" y1="390.1479" y2="412.1479"/><polygon fill="#000000" points="489.6325,402.1479,493.6325,412.1479,497.6325,402.1479,493.6325,406.1479" style="stroke:#000000;stroke-width:1;"/><line style="stroke:#000000;stroke-width:1;" x1="294.9203" x2="294.9203" y1="521.7573" y2="539.7573"/><line style="stroke:#000000;stroke-width:1;" x1="294.9203" x2="382.2764" y1="539.7573" y2="539.7573"/><polygon fill="#000000" points="372.2764,535.7573,382.2764,539.7573,372.2764,543.7573,376.2764,539.7573" style="stroke:#000000;stroke-width:1;"/><line style="stroke:#000000;stroke-width:1;" x1="493.6325" x2="493.6325" y1="457.7573" y2="539.7573"/><line style="stroke:#000000;stroke-width:1;" x1="493.6325" x2="406.2764" y1="539.7573" y2="539.7573"/><polygon fill="#000000" points="416.2764,535.7573,406.2764,539.7573,416.2764,543.7573,412.2764,539.7573" style="stroke:#000000;stroke-width:1;"/><line style="stroke:#000000;stroke-width:1;" x1="394.2764" x2="394.2764" y1="358.1479" y2="378.1479"/><polygon fill="#000000" points="390.2764,368.1479,394.2764,378.1479,398.2764,368.1479,394.2764,372.1479" style="stroke:#000000;stroke-width:1;"/><line style="stroke:#000000;stroke-width:1;" x1="394.2764" x2="394.2764" y1="551.7573" y2="571.7573"/><polygon fill="#000000" points="390.2764,561.7573,394.2764,571.7573,398.2764,561.7573,394.2764,565.7573" style="stroke:#000000;stroke-width:1;"/><line style="stroke:#000000;stroke-width:1;" x1="394.2764" x2="394.2764" y1="617.3667" y2="637.3667"/><polygon fill="#000000" points="390.2764,627.3667,394.2764,637.3667,398.2764,627.3667,394.2764,631.3667" style="stroke:#000000;stroke-width:1;"/><line style="stroke:#000000;stroke-width:1;" x1="394.2764" x2="394.2764" y1="280.8281" y2="312.5386"/><polygon fill="#000000" points="390.2764,302.5386,394.2764,312.5386,398.2764,302.5386,394.2764,306.5386" style="stroke:#000000;stroke-width:1;"/><line style="stroke:#000000;stroke-width:1;" x1="394.2764" x2="394.2764" y1="682.9761" y2="692.9761"/><line style="stroke:#000000;stroke-width:1;" x1="394.2764" x2="555.966" y1="692.9761" y2="692.9761"/><polygon fill="#000000" points="551.966,496.855,555.966,486.855,559.966,496.855,555.966,492.855" style="stroke:#000000;stroke-width:1;"/><line style="stroke:#000000;stroke-width:1;" x1="555.966" x2="555.966" y1="268.8281" y2="692.9761"/><line style="stroke:#000000;stroke-width:1;" x1="555.966" x2="457.3636" y1="268.8281" y2="268.8281"/><polygon fill="#000000" points="467.3636,264.8281,457.3636,268.8281,467.3636,272.8281,463.3636,268.8281" style="stroke:#000000;stroke-width:1;"/><line style="stroke:#000000;stroke-width:1;" x1="331.1892" x2="159.3856" y1="268.8281" y2="268.8281"/><polygon fill="#000000" points="155.3856,482.855,159.3856,492.855,163.3856,482.855,159.3856,486.855" style="stroke:#000000;stroke-width:1;"/><line style="stroke:#000000;stroke-width:1;" x1="159.3856" x2="159.3856" y1="268.8281" y2="704.9761"/><line style="stroke:#000000;stroke-width:1;" x1="159.3856" x2="394.2764" y1="704.9761" y2="704.9761"/><line style="stroke:#000000;stroke-width:1;" x1="394.2764" x2="394.2764" y1="704.9761" y2="724.9761"/><polygon fill="#000000" points="390.2764,714.9761,394.2764,724.9761,398.2764,714.9761,394.2764,718.9761" style="stroke:#000000;stroke-width:1;"/><line style="stroke:#000000;stroke-width:1;" x1="394.2764" x2="394.2764" y1="236.8281" y2="256.8281"/><polygon fill="#000000" points="390.2764,246.8281,394.2764,256.8281,398.2764,246.8281,394.2764,250.8281" style="stroke:#000000;stroke-width:1;"/><line style="stroke:#000000;stroke-width:1;" x1="394.2764" x2="394.2764" y1="757.7808" y2="777.7808"/><polygon fill="#000000" points="390.2764,767.7808,394.2764,777.7808,398.2764,767.7808,394.2764,771.7808" style="stroke:#000000;stroke-width:1;"/><line style="stroke:#000000;stroke-width:1;" x1="188.3717" x2="102.1439" y1="182.0234" y2="182.0234"/><line style="stroke:#000000;stroke-width:1;" x1="102.1439" x2="102.1439" y1="182.0234" y2="204.0234"/><polygon fill="#000000" points="98.1439,194.0234,102.1439,204.0234,106.1439,194.0234,102.1439,198.0234" style="stroke:#000000;stroke-width:1;"/><line style="stroke:#000000;stroke-width:1;" x1="273.2047" x2="394.2764" y1="182.0234" y2="182.0234"/><line style="stroke:#000000;stroke-width:1;" x1="394.2764" x2="394.2764" y1="182.0234" y2="204.0234"/><polygon fill="#000000" points="390.2764,194.0234,394.2764,204.0234,398.2764,194.0234,394.2764,198.0234" style="stroke:#000000;stroke-width:1;"/><line style="stroke:#000000;stroke-width:1;" x1="230.7882" x2="230.7882" y1="150.0234" y2="170.0234"/><polygon fill="#000000" points="226.7882,160.0234,230.7882,170.0234,234.7882,160.0234,230.7882,164.0234" style="stroke:#000000;stroke-width:1;"/><!--SRC=[TL9DQyCm3BtxLsYt3dfOrfrQoXXT1eLkAzddOHVHA8sfOnTReTj-_MIdpRx16AptdlGa-OXhQWYs1hLLOQFj5ZqsK5A5hU4hP_a61R_m6itV-9r-9yYoBs2eiNGxRTTGeGca56is15TQhgLtAmeXWa_ERohZTh3JNCFCsLApTXODBDnQhrviRcZ3lcrWYPujURX4HfXRfhN7I5Kgi41AZGl2igV5GXEbT0M3L3D_rO73-J58hnO6rXqhW75U5BS5vC_p-uay0xkj8d4BWpSAYJ2tuWTDRAyGbrF88b7EhevP1zVE9oI0jgccLD2Xrqk6v6hcJDlOC4wXR0YdGnWDuMoItkcAHZiMZ21ljlpsm-iFKWOBickkUzOqEpdGfEg3D75Wzj57D2rDzi-kpscM_Qqw-qSb2whKfxxlyxlwLFtIVYgxkUIoGWztP6Z5L7RCXB23fVECvijqP0yhBt_KSXns2irS6pFq9Cc_tqathxYzcN61zb_XiDvaumC0]--></g></svg>