<svg xmlns="http://www.w3.org/2000/svg" xmlns:xlink="http://www.w3.org/1999/xlink" contentStyleType="text/css" height="780px" preserveAspectRatio="none" style="width:524px;height:780px;background:#FFFFFF;" version="1.1" viewBox="0 0 524 780" width="524px" zoomAndPan="magnify"><title>File Processing Workflow</title><defs/><g><text fill="#000000" font-family="Arial" font-size="22" font-weight="bold" lengthAdjust="spacing" textLength="312.9521" x="104.0558" y="35.4209">File Processing Workflow</text><ellipse cx="177.886" cy="61.6094" fill="#FFFFFF" rx="10" ry="10" style="stroke:#000000;stroke-width:1;"/><rect fill="#FFFFFF" height="32.8047" rx="12.5" ry="12.5" style="stroke:#000000;stroke-width:1;" width="114.8052" x="120.4834" y="91.6094"/><text fill="#000000" font-family="Arial" font-size="11" lengthAdjust="spacing" textLength="94.8052" x="130.4834" y="111.8198">Read Partner File</text><polygon fill="#FFFFFF" points="147.4695,144.4141,208.3025,144.4141,220.3025,156.4141,208.3025,168.4141,147.4695,168.4141,135.4695,156.4141,147.4695,144.4141" style="stroke:#000000;stroke-width:1;"/><text fill="#000000" font-family="Arial" font-size="11" lengthAdjust="spacing" textLength="60.833" x="147.4695" y="160.2222">File Exists?</text><text fill="#000000" font-family="Arial" font-size="11" lengthAdjust="spacing" textLength="13.7017" x="121.7678" y="153.8198">no</text><text fill="#000000" font-family="Arial" font-size="11" lengthAdjust="spacing" textLength="19.0083" x="220.3025" y="153.8198">yes</text><rect fill="#FFFFFF" height="32.8047" rx="12.5" ry="12.5" style="stroke:#000000;stroke-width:1;" width="86.4834" x="6" y="178.4141"/><text fill="#000000" font-family="Arial" font-size="11" lengthAdjust="spacing" textLength="66.4834" x="16" y="198.6245">ERROR EXIT</text><ellipse cx="49.2417" cy="242.2188" fill="none" rx="11" ry="11" style="stroke:#000000;stroke-width:1;"/><ellipse cx="49.2417" cy="242.2188" fill="#FFFFFF" rx="6" ry="6" style="stroke:#000000;stroke-width:1;"/><rect fill="#FFFFFF" height="32.8047" rx="12.5" ry="12.5" style="stroke:#000000;stroke-width:1;" width="116.1104" x="283.319" y="178.4141"/><text fill="#000000" font-family="Arial" font-size="11" lengthAdjust="spacing" textLength="96.1104" x="293.319" y="198.6245">Initialize Row = 1</text><rect fill="#FFFFFF" height="45.6094" rx="12.5" ry="12.5" style="stroke:#000000;stroke-width:1;" width="103.1929" x="289.7778" y="286.9292"/><text fill="#000000" font-family="Arial" font-size="11" lengthAdjust="spacing" textLength="83.1929" x="299.7778" y="307.1396">Read Columns:</text><text fill="#000000" font-family="Arial" font-size="11" lengthAdjust="spacing" textLength="48.9736" x="299.7778" y="319.9443">1, 2, 3, 4</text><polygon fill="#FFFFFF" points="292.6611,352.5386,390.0873,352.5386,402.0873,364.5386,390.0873,376.5386,292.6611,376.5386,280.6611,364.5386,292.6611,352.5386" style="stroke:#000000;stroke-width:1;"/><text fill="#000000" font-family="Arial" font-size="11" lengthAdjust="spacing" textLength="97.4263" x="292.6611" y="368.3467">Column 3 Empty?</text><text fill="#000000" font-family="Arial" font-size="11" lengthAdjust="spacing" textLength="13.7017" x="266.9594" y="361.9443">no</text><text fill="#000000" font-family="Arial" font-size="11" lengthAdjust="spacing" textLength="19.0083" x="402.0873" y="361.9443">yes</text><polygon fill="#FFFFFF" points="191.973,386.5386,292.0633,386.5386,304.0633,398.5386,292.0633,410.5386,191.973,410.5386,179.973,398.5386,191.973,386.5386" style="stroke:#000000;stroke-width:1;"/><text fill="#000000" font-family="Arial" font-size="11" lengthAdjust="spacing" textLength="100.0903" x="191.973" y="402.3467">Column 1 Length?</text><text fill="#000000" font-family="Arial" font-size="15" font-weight="bold" lengthAdjust="spacing" textLength="20.874" x="159.0989" y="395.001">10</text><text fill="#000000" font-family="Arial" font-size="15" font-weight="bold" lengthAdjust="spacing" textLength="20.874" x="304.0633" y="395.001">11</text><rect fill="#FFFFFF" height="45.6094" rx="12.5" ry="12.5" style="stroke:#000000;stroke-width:1;" width="96.667" x="121.6395" y="420.5386"/><text fill="#000000" font-family="Arial" font-size="11" lengthAdjust="spacing" textLength="76.667" x="131.6395" y="440.749">Use Column 1</text><text fill="#000000" font-family="Arial" font-size="11" lengthAdjust="spacing" textLength="31.061" x="131.6395" y="453.5537">Value</text><rect fill="#FFFFFF" height="45.6094" rx="12.5" ry="12.5" style="stroke:#000000;stroke-width:1;" width="96.667" x="265.7298" y="420.5386"/><text fill="#000000" font-family="Arial" font-size="11" lengthAdjust="spacing" textLength="76.667" x="275.7298" y="440.749">Use Column 4</text><text fill="#000000" font-family="Arial" font-size="11" lengthAdjust="spacing" textLength="31.061" x="275.7298" y="453.5537">Value</text><polygon fill="#FFFFFF" points="242.0181,472.1479,254.0181,484.1479,242.0181,496.1479,230.0181,484.1479,242.0181,472.1479" style="stroke:#000000;stroke-width:1;"/><rect fill="#FFFFFF" height="45.6094" rx="12.5" ry="12.5" style="stroke:#000000;stroke-width:1;" width="96.667" x="392.3968" y="386.5386"/><text fill="#000000" font-family="Arial" font-size="11" lengthAdjust="spacing" textLength="76.667" x="402.3968" y="406.749">Use Column 2</text><text fill="#000000" font-family="Arial" font-size="11" lengthAdjust="spacing" textLength="31.061" x="402.3968" y="419.5537">Value</text><polygon fill="#FFFFFF" points="341.3742,502.1479,353.3742,514.1479,341.3742,526.1479,329.3742,514.1479,341.3742,502.1479" style="stroke:#000000;stroke-width:1;"/><rect fill="#FFFFFF" height="45.6094" rx="12.5" ry="12.5" style="stroke:#000000;stroke-width:1;" width="135.2637" x="273.7424" y="546.1479"/><text fill="#000000" font-family="Arial" font-size="11" lengthAdjust="spacing" textLength="115.2637" x="283.7424" y="566.3584">Enter Selected Value</text><text fill="#000000" font-family="Arial" font-size="11" lengthAdjust="spacing" textLength="46.5352" x="283.7424" y="579.1631">to Portal</text><rect fill="#FFFFFF" height="45.6094" rx="12.5" ry="12.5" style="stroke:#000000;stroke-width:1;" width="103.1875" x="289.7805" y="611.7573"/><text fill="#000000" font-family="Arial" font-size="11" lengthAdjust="spacing" textLength="83.1875" x="299.7805" y="631.9678">Increment Row</text><text fill="#000000" font-family="Arial" font-size="11" lengthAdjust="spacing" textLength="43.957" x="299.7805" y="644.7725">Counter</text><polygon fill="#FFFFFF" points="290.287,231.2188,392.4614,231.2188,404.4614,243.2188,392.4614,255.2188,290.287,255.2188,278.287,243.2188,290.287,231.2188" style="stroke:#000000;stroke-width:1;"/><text fill="#000000" font-family="Arial" font-size="11" lengthAdjust="spacing" textLength="19.0083" x="345.3742" y="265.4292">yes</text><text fill="#000000" font-family="Arial" font-size="11" lengthAdjust="spacing" textLength="102.1743" x="290.287" y="247.0269">More Rows in File?</text><text fill="#000000" font-family="Arial" font-size="11" lengthAdjust="spacing" textLength="13.7017" x="264.5854" y="240.6245">no</text><rect fill="#FFFFFF" height="32.8047" rx="12.5" ry="12.5" style="stroke:#000000;stroke-width:1;" width="72.6689" x="305.0397" y="699.3667"/><text fill="#000000" font-family="Arial" font-size="11" lengthAdjust="spacing" textLength="52.6689" x="315.0397" y="719.5771">Close File</text><ellipse cx="341.3742" cy="763.1714" fill="none" rx="11" ry="11" style="stroke:#000000;stroke-width:1;"/><ellipse cx="341.3742" cy="763.1714" fill="#FFFFFF" rx="6" ry="6" style="stroke:#000000;stroke-width:1;"/><line style="stroke:#000000;stroke-width:1;" x1="177.886" x2="177.886" y1="71.6094" y2="91.6094"/><polygon fill="#000000" points="173.886,81.6094,177.886,91.6094,181.886,81.6094,177.886,85.6094" style="stroke:#000000;stroke-width:1;"/><line style="stroke:#000000;stroke-width:1;" x1="49.2417" x2="49.2417" y1="211.2188" y2="231.2188"/><polygon fill="#000000" points="45.2417,221.2188,49.2417,231.2188,53.2417,221.2188,49.2417,225.2188" style="stroke:#000000;stroke-width:1;"/><line style="stroke:#000000;stroke-width:1;" x1="179.973" x2="169.973" y1="398.5386" y2="398.5386"/><line style="stroke:#000000;stroke-width:1;" x1="169.973" x2="169.973" y1="398.5386" y2="420.5386"/><polygon fill="#000000" points="165.973,410.5386,169.973,420.5386,173.973,410.5386,169.973,414.5386" style="stroke:#000000;stroke-width:1;"/><line style="stroke:#000000;stroke-width:1;" x1="304.0633" x2="314.0633" y1="398.5386" y2="398.5386"/><line style="stroke:#000000;stroke-width:1;" x1="314.0633" x2="314.0633" y1="398.5386" y2="420.5386"/><polygon fill="#000000" points="310.0633,410.5386,314.0633,420.5386,318.0633,410.5386,314.0633,414.5386" style="stroke:#000000;stroke-width:1;"/><line style="stroke:#000000;stroke-width:1;" x1="169.973" x2="169.973" y1="466.1479" y2="484.1479"/><line style="stroke:#000000;stroke-width:1;" x1="169.973" x2="230.0181" y1="484.1479" y2="484.1479"/><polygon fill="#000000" points="220.0181,480.1479,230.0181,484.1479,220.0181,488.1479,224.0181,484.1479" style="stroke:#000000;stroke-width:1;"/><line style="stroke:#000000;stroke-width:1;" x1="314.0633" x2="314.0633" y1="466.1479" y2="484.1479"/><line style="stroke:#000000;stroke-width:1;" x1="314.0633" x2="254.0181" y1="484.1479" y2="484.1479"/><polygon fill="#000000" points="264.0181,480.1479,254.0181,484.1479,264.0181,488.1479,260.0181,484.1479" style="stroke:#000000;stroke-width:1;"/><line style="stroke:#000000;stroke-width:1;" x1="280.6611" x2="242.0181" y1="364.5386" y2="364.5386"/><line style="stroke:#000000;stroke-width:1;" x1="242.0181" x2="242.0181" y1="364.5386" y2="386.5386"/><polygon fill="#000000" points="238.0181,376.5386,242.0181,386.5386,246.0181,376.5386,242.0181,380.5386" style="stroke:#000000;stroke-width:1;"/><line style="stroke:#000000;stroke-width:1;" x1="402.0873" x2="440.7303" y1="364.5386" y2="364.5386"/><line style="stroke:#000000;stroke-width:1;" x1="440.7303" x2="440.7303" y1="364.5386" y2="386.5386"/><polygon fill="#000000" points="436.7303,376.5386,440.7303,386.5386,444.7303,376.5386,440.7303,380.5386" style="stroke:#000000;stroke-width:1;"/><line style="stroke:#000000;stroke-width:1;" x1="242.0181" x2="242.0181" y1="496.1479" y2="514.1479"/><line style="stroke:#000000;stroke-width:1;" x1="242.0181" x2="329.3742" y1="514.1479" y2="514.1479"/><polygon fill="#000000" points="319.3742,510.1479,329.3742,514.1479,319.3742,518.1479,323.3742,514.1479" style="stroke:#000000;stroke-width:1;"/><line style="stroke:#000000;stroke-width:1;" x1="440.7303" x2="440.7303" y1="432.1479" y2="514.1479"/><line style="stroke:#000000;stroke-width:1;" x1="440.7303" x2="353.3742" y1="514.1479" y2="514.1479"/><polygon fill="#000000" points="363.3742,510.1479,353.3742,514.1479,363.3742,518.1479,359.3742,514.1479" style="stroke:#000000;stroke-width:1;"/><line style="stroke:#000000;stroke-width:1;" x1="341.3742" x2="341.3742" y1="332.5386" y2="352.5386"/><polygon fill="#000000" points="337.3742,342.5386,341.3742,352.5386,345.3742,342.5386,341.3742,346.5386" style="stroke:#000000;stroke-width:1;"/><line style="stroke:#000000;stroke-width:1;" x1="341.3742" x2="341.3742" y1="526.1479" y2="546.1479"/><polygon fill="#000000" points="337.3742,536.1479,341.3742,546.1479,345.3742,536.1479,341.3742,540.1479" style="stroke:#000000;stroke-width:1;"/><line style="stroke:#000000;stroke-width:1;" x1="341.3742" x2="341.3742" y1="591.7573" y2="611.7573"/><polygon fill="#000000" points="337.3742,601.7573,341.3742,611.7573,345.3742,601.7573,341.3742,605.7573" style="stroke:#000000;stroke-width:1;"/><line style="stroke:#000000;stroke-width:1;" x1="341.3742" x2="341.3742" y1="255.2188" y2="286.9292"/><polygon fill="#000000" points="337.3742,276.9292,341.3742,286.9292,345.3742,276.9292,341.3742,280.9292" style="stroke:#000000;stroke-width:1;"/><line style="stroke:#000000;stroke-width:1;" x1="341.3742" x2="341.3742" y1="657.3667" y2="667.3667"/><line style="stroke:#000000;stroke-width:1;" x1="341.3742" x2="503.0638" y1="667.3667" y2="667.3667"/><polygon fill="#000000" points="499.0638,471.2456,503.0638,461.2456,507.0638,471.2456,503.0638,467.2456" style="stroke:#000000;stroke-width:1;"/><line style="stroke:#000000;stroke-width:1;" x1="503.0638" x2="503.0638" y1="243.2188" y2="667.3667"/><line style="stroke:#000000;stroke-width:1;" x1="503.0638" x2="404.4614" y1="243.2188" y2="243.2188"/><polygon fill="#000000" points="414.4614,239.2188,404.4614,243.2188,414.4614,247.2188,410.4614,243.2188" style="stroke:#000000;stroke-width:1;"/><line style="stroke:#000000;stroke-width:1;" x1="278.287" x2="106.4834" y1="243.2188" y2="243.2188"/><polygon fill="#000000" points="102.4834,457.2456,106.4834,467.2456,110.4834,457.2456,106.4834,461.2456" style="stroke:#000000;stroke-width:1;"/><line style="stroke:#000000;stroke-width:1;" x1="106.4834" x2="106.4834" y1="243.2188" y2="679.3667"/><line style="stroke:#000000;stroke-width:1;" x1="106.4834" x2="341.3742" y1="679.3667" y2="679.3667"/><line style="stroke:#000000;stroke-width:1;" x1="341.3742" x2="341.3742" y1="679.3667" y2="699.3667"/><polygon fill="#000000" points="337.3742,689.3667,341.3742,699.3667,345.3742,689.3667,341.3742,693.3667" style="stroke:#000000;stroke-width:1;"/><line style="stroke:#000000;stroke-width:1;" x1="341.3742" x2="341.3742" y1="211.2188" y2="231.2188"/><polygon fill="#000000" points="337.3742,221.2188,341.3742,231.2188,345.3742,221.2188,341.3742,225.2188" style="stroke:#000000;stroke-width:1;"/><line style="stroke:#000000;stroke-width:1;" x1="341.3742" x2="341.3742" y1="732.1714" y2="752.1714"/><polygon fill="#000000" points="337.3742,742.1714,341.3742,752.1714,345.3742,742.1714,341.3742,746.1714" style="stroke:#000000;stroke-width:1;"/><line style="stroke:#000000;stroke-width:1;" x1="135.4695" x2="49.2417" y1="156.4141" y2="156.4141"/><line style="stroke:#000000;stroke-width:1;" x1="49.2417" x2="49.2417" y1="156.4141" y2="178.4141"/><polygon fill="#000000" points="45.2417,168.4141,49.2417,178.4141,53.2417,168.4141,49.2417,172.4141" style="stroke:#000000;stroke-width:1;"/><line style="stroke:#000000;stroke-width:1;" x1="220.3025" x2="341.3742" y1="156.4141" y2="156.4141"/><line style="stroke:#000000;stroke-width:1;" x1="341.3742" x2="341.3742" y1="156.4141" y2="178.4141"/><polygon fill="#000000" points="337.3742,168.4141,341.3742,178.4141,345.3742,168.4141,341.3742,172.4141" style="stroke:#000000;stroke-width:1;"/><line style="stroke:#000000;stroke-width:1;" x1="177.886" x2="177.886" y1="124.4141" y2="144.4141"/><polygon fill="#000000" points="173.886,134.4141,177.886,144.4141,181.886,134.4141,177.886,138.4141" style="stroke:#000000;stroke-width:1;"/><!--SRC=[TL9DRy8m3BtdLtYt8d5OW1CLcYPK9AHzeBAlQqHT6f4cLUAAiL-_98MoCIPLKUttdlrYvuOgh14Q9QHcRYTr8woeeS1Ij8eMHjEJyFYzbK9TnzVo2u7p7w2hH67sKc-X5CeXOoH98IoaFrRMRD2v0BuRkokLsJFcI5XYR9gZA63b_pNQI4yPaoKaKPbzIaVkRW3UiOP4cm43c6Pv_fn3zh5yINteo3GCVKz83kWYOQabUU_1P6xsC0CUYFxRLw5gycXiH1n87Nlw3jBrUbyXkfeRrTRQJMEA3s4qXF4G9ccCun6CTYmOGrOtTBZmUa7Yy81wIrNFcl7R4yrtVVMNE37xx9jGBQR7iBldZFFhgia_Abt8aftr_Jr_gqViZ_QixEQIQV9hMgF23M7HCID21bR6ab0_fkFtiB7-fMaAmuwfkMb3XPxawnztqiqhR6-kZCFZKpYjDzhu1W00]--></g></svg>